<svg width="150" height="150" viewBox="0 0 150 150" fill="none" xmlns="http://www.w3.org/2000/svg">
<path d="M88.2617 67.7087C84.5951 71.042 84.5951 76.792 88.2617 80.1253L95.3034 86.4587C99.7201 90.417 102.22 96.042 102.22 101.959V120.792H50.1367V101.959C50.1367 96.042 52.6367 90.417 57.0534 86.4587L64.0951 80.1253C67.7617 76.792 67.7617 71.042 64.0951 67.7087L57.0534 61.3753C54.8747 59.4239 53.1325 57.0346 51.9406 54.3636C50.7488 51.6926 50.1341 48.8002 50.1367 45.8753V27.042H102.22V45.8753C102.22 51.792 99.7201 57.417 95.3034 61.3753L88.2617 67.7087Z" fill="#F3F3F1"/>
<path d="M125.395 118.967H133.728V123.133H125.395V118.967ZM116.02 104.383H120.187V112.717H116.02V104.383ZM116.02 128.342H120.187V136.675H116.02V128.342ZM22.0117 26C18.5659 26 15.7617 23.1958 15.7617 19.75C15.7617 16.3042 18.5659 13.5 22.0117 13.5C25.4576 13.5 28.2617 16.3042 28.2617 19.75C28.2617 23.1958 25.4576 26 22.0117 26ZM22.0117 17.6667C21.4581 17.6678 20.9276 17.8888 20.5369 18.281C20.1462 18.6733 19.9273 19.2047 19.9284 19.7583C19.9295 20.312 20.1505 20.8425 20.5427 21.2332C20.935 21.6239 21.4664 21.8428 22.0201 21.8417C22.5737 21.8406 23.1042 21.6196 23.4949 21.2273C23.8856 20.835 24.1045 20.3036 24.1034 19.75C24.1023 19.1964 23.8813 18.6658 23.489 18.2751C23.0968 17.8844 22.5654 17.6656 22.0117 17.6667Z" fill="#A4AFC1"/>
<path d="M41.8027 23.917H110.553V30.167H41.8027V23.917ZM41.8027 117.667H110.553V123.917H41.8027V117.667Z" fill="#EFA44A"/>
<path d="M92.8451 120.791H86.5951V113.825C86.5951 112.433 86.0535 111.129 85.0743 110.146L76.1785 101.254L67.2868 110.146C66.314 111.125 65.7661 112.448 65.7618 113.829V120.796H59.5118V113.829C59.5118 110.771 60.7035 107.891 62.8701 105.729L73.9701 94.6288C74.2603 94.3384 74.6049 94.1081 74.9842 93.9509C75.3635 93.7937 75.77 93.7128 76.1805 93.7128C76.5911 93.7128 76.9976 93.7937 77.3769 93.9509C77.7562 94.1081 78.1008 94.3384 78.391 94.6288L89.491 105.729C91.6535 107.879 92.8451 110.762 92.8451 113.825V120.791ZM76.1785 65.583C75.768 65.584 75.3615 65.5035 74.9824 65.3461C74.6033 65.1888 74.2592 64.9577 73.9701 64.6663L64.1118 54.808C62.6481 53.3547 61.4877 51.6251 60.698 49.7196C59.9083 47.8141 59.5051 45.7707 59.5118 43.708C59.5118 42.8792 59.841 42.0844 60.4271 41.4983C61.0131 40.9122 61.808 40.583 62.6368 40.583H89.7201C90.5489 40.583 91.3438 40.9122 91.9298 41.4983C92.5159 42.0844 92.8451 42.8792 92.8451 43.708C92.8517 45.7713 92.4484 47.8153 91.6588 49.7214C90.8691 51.6276 89.7088 53.358 88.2451 54.8122L78.3868 64.6663C78.0974 64.9573 77.7533 65.1882 77.3743 65.3455C76.9953 65.5028 76.5888 65.5836 76.1785 65.583ZM66.2993 46.833C66.766 48.158 67.5243 49.383 68.5285 50.3913L76.1785 58.0372L83.8285 50.3872C84.8493 49.3663 85.6076 48.1538 86.0701 46.8288H66.2993V46.833Z" fill="#EFA44A"/>
<path d="M53.2617 120.792H47.0117V101.946C47.0117 95.167 49.8992 88.6753 54.9409 84.142L61.9951 77.792C63.1117 76.792 63.7201 75.4212 63.7201 73.9212C63.7201 72.4212 63.1117 71.0545 61.9951 70.0503L54.9409 63.7003C52.4469 61.451 50.4525 58.7035 49.0867 55.6352C47.7209 52.567 47.014 49.2463 47.0117 45.8878V27.042H53.2617V45.8878C53.2617 50.8962 55.3992 55.6962 59.1242 59.0462L66.1784 65.3962C68.5867 67.567 69.9701 70.6712 69.9701 73.9128C69.9701 77.1545 68.5867 80.2587 66.1784 82.4295L59.1242 88.7795C57.2802 90.44 55.8055 92.4694 54.7956 94.7361C53.7857 97.0028 53.2631 99.4563 53.2617 101.938V120.792ZM105.345 120.792H99.0951V101.946C99.0931 99.4647 98.5703 97.0114 97.5605 94.7447C96.5506 92.4781 95.0762 90.4487 93.2326 88.7878L86.1784 82.4337C83.7701 80.2628 82.3867 77.1587 82.3867 73.917C82.3867 70.6753 83.7701 67.5712 86.1784 65.4003L93.2284 59.0503C95.0724 57.3898 96.5471 55.3604 97.557 53.0937C98.5669 50.827 99.0895 48.3735 99.0909 45.892V27.042H105.345V45.8878C105.344 49.2453 104.637 52.565 103.271 55.632C101.905 58.699 99.9105 61.445 97.4159 63.692L90.3659 70.042C89.2492 71.042 88.6409 72.4128 88.6409 73.9128C88.6409 75.4128 89.2492 76.7795 90.3659 77.7837L97.4159 84.1337C99.9093 86.3834 101.903 89.1311 103.269 92.1992C104.635 95.2673 105.342 98.5878 105.345 101.946V120.792Z" fill="#EFA44A"/>
</svg>
